<svg id="visual" viewBox="0 0 900 450" width="900" height="450" xmlns="http://www.w3.org/2000/svg" xmlns:xlink="http://www.w3.org/1999/xlink" version="1.1"><rect x="0" y="0" width="900" height="450" fill="#f9bf90"></rect><defs><linearGradient id="grad1_0" x1="50%" y1="0%" x2="100%" y2="100%"><stop offset="10%" stop-color="#f9bf90" stop-opacity="1"></stop><stop offset="90%" stop-color="#f9bf90" stop-opacity="1"></stop></linearGradient></defs><defs><linearGradient id="grad2_0" x1="0%" y1="0%" x2="50%" y2="100%"><stop offset="10%" stop-color="#f9bf90" stop-opacity="1"></stop><stop offset="90%" stop-color="#f9bf90" stop-opacity="1"></stop></linearGradient></defs><g transform="translate(900, 0)"><path d="M0 337.5C-29.7 320.2 -59.4 302.9 -96.1 295.8C-132.8 288.7 -176.7 291.7 -194.6 267.8C-212.5 243.9 -204.5 193 -225.7 164C-247 135 -297.5 128 -321 104.3C-344.5 80.6 -341 40.3 -337.5 0L0 0Z" fill="#f88222"></path></g><g transform="translate(0, 450)"><path d="M0 -337.5C30.8 -316.3 61.6 -295.2 91.8 -282.5C121.9 -269.8 151.4 -265.5 185.2 -254.8C218.9 -244.2 256.8 -227 273 -198.4C289.3 -169.7 283.9 -129.5 291 -94.6C298.2 -59.6 317.8 -29.8 337.5 0L0 0Z" fill="#f88222"></path></g></svg>