<svg id="visual" viewBox="0 0 960 540" width="960" height="540" xmlns="http://www.w3.org/2000/svg" xmlns:xlink="http://www.w3.org/1999/xlink" version="1.1"><rect x="0" y="0" width="960" height="540" fill="#FDF1E6"></rect><defs><linearGradient id="grad1_0" x1="43.8%" y1="0%" x2="100%" y2="100%"><stop offset="14.444444444444446%" stop-color="#fdf1e6" stop-opacity="1"></stop><stop offset="85.55555555555554%" stop-color="#fdf1e6" stop-opacity="1"></stop></linearGradient></defs><defs><linearGradient id="grad2_0" x1="0%" y1="0%" x2="56.3%" y2="100%"><stop offset="14.444444444444446%" stop-color="#fdf1e6" stop-opacity="1"></stop><stop offset="85.55555555555554%" stop-color="#fdf1e6" stop-opacity="1"></stop></linearGradient></defs><g transform="translate(960, 0)"><path d="M0 243C-22.7 218.8 -45.4 194.5 -77.3 186.6C-109.2 178.7 -150.2 187.2 -171.8 171.8C-193.4 156.4 -195.6 117.2 -204.2 84.6C-212.8 52 -227.9 26 -243 0L0 0Z" fill="#FBAE3C"></path></g><g transform="translate(0, 540)"><path d="M0 -243C24.9 -218.2 49.9 -193.5 74.2 -179.2C98.6 -165 122.5 -161.3 149.9 -149.9C177.3 -138.5 208.4 -119.3 224.5 -93C240.6 -66.7 241.8 -33.4 243 0L0 0Z" fill="#FBAE3C"></path></g></svg>